# xmcd
#
# Track frame offsets: 
#        150
#        15693
#        32463
#        52725
#        70581
#        86691
#        105825
#        122769
#        139149
#        154797
#        175053
#        191253
#        206724
#        216537
#        235101
#
# Disc length: 3454 seconds
#
# Revision: 1
# Processed by: cddbd v1.5.2PL0 Copyright (c) Steve Scherf et al.
# Submitted via: ExactAudioCopyFreeDBPlugin 1.0
#
DISCID=bf0d7c0f
DTITLE=Jessie Ware - Devotion: The Gold Edition
DYEAR=2013
DGENRE=Pop
TTITLE0=Devotion
TTITLE1=Wildest Moments
TTITLE2=Running
TTITLE3=Still Love Me
TTITLE4=No To Love
TTITLE5=Night Light
TTITLE6=Swan Song
TTITLE7=Sweet Talk
TTITLE8=If You´re Never Gonna Move
TTITLE9=Taking In Water
TTITLE10=Something Inside
TTITLE11=Imagine It Was Us
TTITLE12=Valentine (Jessie Ware and Sampha)
TTITLE13=Wildest Moments Remix Feat. A$AP Rocky
TTITLE14=Running (Disclosure Remix)
EXTD=
EXTT0=
EXTT1=
EXTT2=
EXTT3=
EXTT4=
EXTT5=
EXTT6=
EXTT7=
EXTT8=
EXTT9=
EXTT10=
EXTT11=
EXTT12=
EXTT13=
EXTT14=
PLAYORDER=
